<?xml version="1.0" encoding="iso-8859-1"?>
<!-- Generator: Adobe Illustrator 18.0.0, SVG Export Plug-In . SVG Version: 6.00 Build 0)  -->
<!DOCTYPE svg PUBLIC "-//W3C//DTD SVG 1.1//EN" "http://www.w3.org/Graphics/SVG/1.1/DTD/svg11.dtd">
<svg version="1.1" id="Capa_1" xmlns="http://www.w3.org/2000/svg" xmlns:xlink="http://www.w3.org/1999/xlink" x="0px" y="0px"
	 viewBox="0 0 297 297" style="enable-background:new 0 0 297 297;" xml:space="preserve">
<g>
	<path d="M287.631,193.236h-6.09V17.098c0-5.174-4.195-9.369-9.369-9.369H24.828c-5.174,0-9.369,4.195-9.369,9.369v176.139h-6.09
		c-5.174,0-9.369,4.195-9.369,9.369v30.918c0,5.174,4.195,9.369,9.369,9.369h33.377l-11.348,34.045
		c-1.636,4.908,1.018,10.215,5.926,11.852c0.983,0.328,1.981,0.482,2.964,0.482c3.923,0,7.578-2.482,8.888-6.408l13.323-39.971
		h172.002l13.323,39.971c1.31,3.926,4.965,6.408,8.888,6.408c0.981,0,1.98-0.154,2.964-0.482c4.908-1.637,7.561-6.943,5.926-11.852
		l-11.348-34.045h33.377c5.174,0,9.369-4.195,9.369-9.369v-30.918C297,197.432,292.805,193.236,287.631,193.236z M34.197,26.467
		h228.605v166.77H34.197V26.467z M18.738,224.154v-12.18h259.523v12.18H18.738z"/>
	<path d="M159.363,94.895c0-11.773-9.577-21.354-21.348-21.354c-11.77,0-21.347,9.58-21.347,21.354c0,4.141,3.355,7.496,7.495,7.496
		c4.14,0,7.495-3.355,7.495-7.496c0-3.508,2.852-6.363,6.356-6.363s6.357,2.855,6.357,6.363c0,4.477-6.308,10.16-11.874,15.176
		c-7.782,7.012-15.83,14.264-15.83,24.363c0,4.139,3.355,7.494,7.495,7.494h27.704c4.139,0,7.495-3.355,7.495-7.494
		c0-4.141-3.356-7.496-7.495-7.496H136.44c1.896-1.949,4.096-3.932,6.094-5.732C150.423,114.098,159.363,106.041,159.363,94.895z"/>
	<path d="M217.841,72.527c0,0-0.002,0-0.004,0c-6.278,0-12.212,2.75-16.279,7.543c-2.678,3.156-2.29,7.887,0.867,10.565
		c3.159,2.678,7.889,2.291,10.564-0.865c1.196-1.41,3.008-2.252,4.849-2.252c0,0,0.001,0,0.002,0c3.505,0,6.355,2.854,6.355,6.361
		c0,3.508-2.851,6.361-6.355,6.361c-4.14,0-7.496,3.356-7.496,7.494c0,4.141,3.356,7.496,7.496,7.496
		c3.505,0,6.355,2.854,6.355,6.361c0,3.508-2.851,6.359-6.357,6.359h-0.001c-1.84,0-3.652-0.84-4.849-2.25
		c-2.678-3.156-7.407-3.543-10.564-0.865c-3.156,2.678-3.543,7.408-0.865,10.565c4.067,4.793,10,7.541,16.276,7.541
		c0.001,0,0.003,0,0.005,0c11.771,0,21.347-9.576,21.347-21.35c0-5.283-1.929-10.125-5.119-13.857
		c3.19-3.732,5.119-8.574,5.119-13.855C239.186,82.105,229.61,72.527,217.841,72.527z"/>
	<path d="M65.31,72.527c-4.14,0-7.496,3.355-7.496,7.496v55.424c0,4.139,3.356,7.494,7.496,7.494c4.139,0,7.495-3.355,7.495-7.494
		V80.023C72.805,75.883,69.448,72.527,65.31,72.527z"/>
	<path d="M108.174,102.709h-4.218v-5.1c0-4.139-3.355-7.494-7.495-7.494c-4.139,0-7.495,3.356-7.495,7.494v5.1h-4.215
		c-4.14,0-7.495,3.355-7.495,7.496c0,4.139,3.355,7.494,7.495,7.494h4.215v5.098c0,4.141,3.357,7.496,7.495,7.496
		c4.14,0,7.495-3.355,7.495-7.496v-5.098h4.218c4.139,0,7.495-3.355,7.495-7.494C115.669,106.064,112.313,102.709,108.174,102.709z"
		/>
	<path d="M189.739,95.961h-19.5c-4.14,0-7.495,3.355-7.495,7.494c0,4.141,3.355,7.496,7.495,7.496h19.5
		c4.14,0,7.495-3.355,7.495-7.496C197.234,99.316,193.879,95.961,189.739,95.961z"/>
	<path d="M189.739,113.109h-19.5c-4.14,0-7.495,3.355-7.495,7.496c0,4.139,3.355,7.494,7.495,7.494h19.5
		c4.14,0,7.495-3.355,7.495-7.494C197.234,116.465,193.879,113.109,189.739,113.109z"/>
</g>
<g>
</g>
<g>
</g>
<g>
</g>
<g>
</g>
<g>
</g>
<g>
</g>
<g>
</g>
<g>
</g>
<g>
</g>
<g>
</g>
<g>
</g>
<g>
</g>
<g>
</g>
<g>
</g>
<g>
</g>
</svg>
